<?xml version="1.0" standalone="no"?>
<!DOCTYPE svg PUBLIC "-//W3C//DTD SVG 20010904//EN"
 "http://www.w3.org/TR/2001/REC-SVG-20010904/DTD/svg10.dtd">
<svg version="1.0" xmlns="http://www.w3.org/2000/svg"
 width="500" height="500" viewBox="0 0 500.000000 500.000000"
 preserveAspectRatio="xMidYMid meet">

<g transform="translate(0.000000,500.000000) scale(0.100000,-0.100000)"
stroke="none">
<path d="M2550 3280 c-111 -20 -189 -127 -161 -222 18 -58 55 -93 144 -138
118 -59 139 -89 92 -135 -35 -36 -91 -33 -168 6 -69 35 -67 35 -107 -43 -22
-41 -21 -43 46 -76 63 -32 162 -46 225 -33 105 23 145 55 169 138 29 95 -23
172 -156 234 -92 42 -114 61 -114 93 0 53 71 71 155 41 22 -8 43 -15 47 -15 4
0 19 23 33 50 l26 51 -47 20 c-55 25 -135 37 -184 29z"/>
<path d="M1871 3248 c-5 -13 -61 -151 -124 -308 -64 -157 -114 -286 -112 -288
6 -6 122 -10 132 -4 5 4 19 32 30 62 l21 55 127 0 128 0 20 -57 c14 -39 27
-58 41 -62 30 -8 99 -7 113 2 8 5 -22 91 -103 292 -64 157 -119 295 -124 308
-9 20 -16 22 -75 22 -59 0 -66 -2 -74 -22z m118 -265 c17 -45 31 -85 31 -88 0
-3 -34 -5 -75 -5 -41 0 -75 2 -75 5 0 4 28 79 59 159 15 37 21 29 60 -71z"/>
<path d="M2930 2960 l0 -310 23 -5 c13 -4 43 -5 68 -3 l44 3 3 313 2 312 -70
0 -70 0 0 -310z"/>
<path d="M1545 2365 c-24 -23 -25 -30 -25 -138 0 -109 -1 -114 -25 -135 -31
-27 -31 -35 -1 -64 23 -21 25 -31 28 -141 3 -111 5 -120 27 -138 16 -13 39
-19 72 -19 l49 0 0 34 c0 30 -3 35 -27 38 l-28 3 -5 105 c-4 78 -10 113 -23
133 -9 15 -13 27 -8 27 17 0 25 35 30 140 l6 105 28 3 c24 3 27 8 27 38 l0 34
-50 0 c-41 0 -56 -5 -75 -25z"/>
<path d="M3740 2355 c0 -27 4 -35 18 -35 35 0 42 -21 42 -120 0 -70 4 -101 16
-118 14 -20 14 -24 0 -44 -12 -17 -16 -48 -16 -118 0 -99 -7 -120 -42 -120
-14 0 -18 -8 -18 -35 0 -35 0 -35 46 -35 88 0 104 29 104 187 0 96 2 105 20
110 14 4 20 14 20 33 0 19 -6 29 -20 33 -18 5 -20 14 -20 110 0 155 -17 187
-101 187 l-49 0 0 -35z"/>
<path d="M1911 2349 c-94 -47 -141 -122 -141 -224 0 -137 119 -248 266 -249
52 0 154 26 154 40 0 2 -10 23 -21 48 l-22 44 -36 -15 c-102 -43 -224 28 -224
129 0 122 116 186 243 134 10 -4 22 7 38 36 22 40 22 43 5 55 -27 20 -83 33
-144 33 -42 0 -71 -7 -118 -31z"/>
<path d="M2402 2354 c-87 -43 -136 -124 -136 -224 0 -150 100 -254 244 -254
132 0 228 87 246 221 26 197 -178 345 -354 257z m164 -89 c87 -36 99 -200 19
-263 -50 -40 -154 -20 -183 35 -32 60 -25 146 15 194 42 50 87 60 149 34z"/>
<path d="M2860 2125 l0 -245 83 0 c114 0 178 21 232 75 99 98 95 254 -7 352
-52 50 -94 63 -208 63 l-100 0 0 -245z m210 126 c33 -23 60 -78 60 -121 0 -73
-67 -150 -131 -150 l-29 0 0 151 0 151 38 -6 c20 -4 48 -15 62 -25z"/>
<path d="M3349 2368 c-3 -10 -3 -448 0 -466 3 -22 5 -23 140 -20 l136 3 0 45
0 45 -88 3 -88 3 3 47 3 47 83 3 82 3 0 49 0 50 -86 0 -85 0 3 48 3 47 85 5
85 5 3 43 3 42 -140 0 c-78 0 -141 -1 -142 -2z"/>
</g>
</svg>
